<?xml version="1.0" encoding="UTF-8"?><svg id="Camada_2" xmlns="http://www.w3.org/2000/svg" viewBox="0 0 962.59 978.65"><defs><style>.cls-1{fill:#fff;}</style></defs><g id="Camada_1-2"><g id="Camada_9"><g><path class="cls-1" d="M418.27,978.19c-20.37-3.89-40.96-6.18-60.87-11.67C180.98,918.46,67.02,806.34,15.31,630.83c-4.81-16.48,3.89-32.26,18.99-36.61,16.25-4.58,31.35,4.35,36.38,22.2,20.59,75.51,58.58,140.73,115.79,194.27,70.48,65.67,153.77,102.97,250.11,110.52,171.39,13.5,332.48-81.23,404.79-237.29,1.83-3.66,3.2-7.55,5.95-13.27-8.01,3.2-14.19,5.72-20.59,8.24-17.39,7.09-33.64,1.6-40.5-13.73-6.86-15.56,.46-31.58,18.08-39.13,26.31-11.21,52.63-22.42,79.17-33.41,19.45-8.24,34.32-2.06,42.56,17.39,11.44,26.54,22.65,53.32,33.64,80.09,7.09,17.16,.92,33.41-14.64,39.82-15.33,6.18-30.43-.69-37.99-17.39-2.29-5.26-4.58-10.3-7.32-16.7-7.09,13.96-13.04,27-19.91,39.59-78.49,137.98-196.56,218.76-353.76,241.41-2.06,.23-4.12,1.14-6.41,1.83-33.64-.46-67.5-.46-101.37-.46Z"/><path class="cls-1" d="M544.32,.46c20.37,3.89,40.96,6.18,60.87,11.67,176.42,48.05,290.38,160.18,342.09,335.69,4.81,16.48-3.89,32.26-18.99,36.61-16.25,4.58-31.35-4.35-36.38-22.2-20.59-75.51-58.58-140.73-115.79-194.27-70.48-65.67-153.77-102.97-250.11-110.52-171.39-13.5-332.48,81.23-404.79,237.29-1.83,3.66-3.2,7.55-5.95,13.27,8.01-3.2,14.19-5.72,20.59-8.24,17.39-7.09,33.64-1.6,40.5,13.73,6.86,15.56-.46,31.58-18.08,39.13-26.31,11.21-52.63,22.42-79.17,33.41-19.45,8.24-34.32,2.06-42.56-17.39-11.44-26.54-22.65-53.32-33.64-80.09-7.09-17.16-.92-33.41,14.64-39.82,15.33-6.18,30.43,.69,37.99,17.39,2.29,5.26,4.58,10.3,7.32,16.7,7.09-13.96,13.04-27,19.91-39.59C161.27,105.26,279.34,24.48,436.55,1.83c2.06-.23,4.12-1.14,6.41-1.83,33.64,.46,67.5,.46,101.37,.46Z"/><path class="cls-1" d="M561.74,460.13c35.47,0,69.56-.23,103.43,0,20.59,.23,34.1,18.08,28.15,36.84-1.37,4.35-4.12,8.7-7.09,12.13-78.72,95.42-157.66,191.07-236.61,286.49-9.38,11.44-20.82,14.87-32.95,10.53-12.36-4.35-19.22-14.64-19.22-29.75v-256.97h-101.6c-13.04,0-23.11-4.81-28.6-16.7-5.49-11.67-2.97-22.2,5.03-32.04,79.4-95.88,158.58-191.98,237.98-287.86,8.92-10.75,20.59-13.96,32.49-9.84,12.13,4.35,19.22,14.64,19.22,28.83v245.53c-.23,4.35-.23,8.01-.23,12.81Z"/></g></g></g></svg>