<?xml version="1.0" encoding="UTF-8"?><svg id="Camada_2" xmlns="http://www.w3.org/2000/svg" viewBox="0 0 978.47 727.87"><defs><style>.cls-1{fill:#fff;}</style></defs><g id="Camada_3"><g><path class="cls-1" d="M0,377.12C2.27,227.35,47.86,112.3,141.02,16.81c24.74-25.36,62.7-21.31,79.58,7.9,11.54,19.98,8.59,42.5-9.04,60.78-25.53,26.47-47.55,55.42-65.41,87.61-82.06,147.89-58.41,336.84,57.68,459.78,3.3,3.5,6.67,6.94,9.89,10.52,18.69,20.72,17.97,51.15-1.6,69.24-20.69,19.13-50.42,18.74-69.8-1.65-66.05-69.49-110.2-150.97-129.8-244.84-7.24-34.67-9.97-70.29-12.52-89.02Z"/><path class="cls-1" d="M978.47,360.58c-1.48,100.79-34.51,202.06-95.63,294.36-12.19,18.41-25.79,35.94-39.55,53.24-19.19,24.13-45.95,26.07-69.86,5.91-20.88-17.6-22.69-49.48-3.9-70.51,7.05-7.89,14.53-15.4,21.44-23.41,131.74-152.71,126-382.59-13.29-528.64-11.09-11.63-20.86-23.41-21.13-40.6-.32-20.48,10.89-38.62,29.42-46.75,18.73-8.21,39.74-4.24,54.94,10.9,37.82,37.67,68.47,80.49,91.56,128.66,30.59,63.81,45.69,131.8,45.99,216.83Z"/><path class="cls-1" d="M195.87,363.76c.98-80.3,28.59-149.36,84.06-207.03,20.81-21.64,50.91-23.04,71.26-3.7,20.48,19.46,21.28,50.05,.35,71.25-75.97,76.95-75.84,201.32,.29,278.32,20.4,20.64,19.57,51.45-.42,70.6-20.17,19.32-50.11,18.38-70.55-2.65-56.05-57.66-83.86-126.96-84.99-206.78Z"/><path class="cls-1" d="M787.68,370.85c-1.58,72.07-28.55,140.77-83.42,198.12-21.15,22.11-51.33,23.81-71.99,4.08-20.73-19.79-20.45-49.63,.68-72.12,67.37-71.72,74.92-176.11,18.17-254.03-6.02-8.26-13.04-15.83-19.9-23.44-19.23-21.3-18.98-50.96,.78-70.05,19.97-19.3,50.37-18.36,70.68,2.19,54.34,54.97,85.28,130.77,85.01,215.26Z"/><path class="cls-1" d="M590.47,363.28c.05,54.33-43.99,98.56-98.29,98.72-54.47,.16-99.06-44.55-98.9-99.17,.16-54.12,44.93-98.62,98.84-98.26,54.54,.36,98.3,44.29,98.35,98.71Z"/></g></g></svg>