<?xml version="1.0" encoding="UTF-8"?><svg id="Camada_2" xmlns="http://www.w3.org/2000/svg" viewBox="0 0 957.29 888.34"><defs><style>.cls-1{fill:#fff;}</style></defs><g id="Camada_1-2"><g><path class="cls-1" d="M478.6,888.2c-100.08,0-200.17,.11-300.25-.03-88.11-.13-159.06-58.78-175.22-145.26-2.51-13.43-2.72-27.4-2.86-41.13-.37-35.53-.33-71.07-.02-106.61,.16-18.63,12.36-32.99,29.06-35.51,17.17-2.59,33.05,6.66,38.45,23.12,1.65,5.02,1.91,10.66,1.94,16.02,.16,35.9,.03,71.8,.1,107.7,.12,66.91,45.11,112.03,111.81,112.04,197.99,.03,395.98,.03,593.98,0,66.72-.01,111.7-45.11,111.83-112.03,.07-36.26-.05-72.52,.04-108.79,.06-23.38,13.97-38.54,34.95-38.38,20.22,.15,34.7,15.61,34.59,37.98-.22,44.94,1.68,90.09-1.93,134.78-7.01,86.75-82.48,155.24-169.68,155.86-102.25,.73-204.52,.17-306.78,.17v.06Z"/><path class="cls-1" d="M443.78,119.18c-4.62,4.38-7.49,6.98-10.22,9.71-41.81,41.78-83.56,83.62-125.42,125.34-11.68,11.64-26.11,14.47-39.81,8.35-13.17-5.89-22.32-19.72-20.03-34.12,1.23-7.74,4.78-16.51,10.18-21.96C323.02,141.31,388.01,76.56,453.09,11.9c15.82-15.72,35.49-15.9,51.17-.3,65.8,65.48,131.42,131.14,196.93,196.9,14.35,14.4,14.38,36.15,.89,49.78-13.74,13.89-35.66,13.62-50.55-1.2-42.68-42.44-85.16-85.09-127.73-127.65-2.76-2.76-5.63-5.4-10.36-9.92v14.56c0,164.62,0,329.25-.02,493.87,0,4.7,.22,9.51-.62,14.09-3.23,17.53-19.51,29.83-37.04,28.4-17.06-1.39-30.82-15.59-31.87-33-.22-3.61-.09-7.25-.09-10.88,0-163.9,0-327.8,0-491.7v-15.69Z"/></g></g></svg>