<?xml version="1.0" encoding="UTF-8"?><svg id="Camada_2" xmlns="http://www.w3.org/2000/svg" viewBox="0 0 978.47 671.05"><defs><style>.cls-1{fill:#fff;}</style></defs><g id="Camada_2-2"><g><path class="cls-1" d="M978.47,446.33c-5.25,21.84-8.54,44.38-16.09,65.4-35.62,99.14-145.8,162.2-249.73,144.12-96.66-16.82-168.55-82.92-189.1-179.36-17.94-84.18,6-157.75,68.81-216.82,50.79-47.77,112.5-68.13,181.57-59.49,90.64,11.34,153.94,61.05,188.5,145.49,8.29,20.25,10.84,42.85,16.03,64.37v36.3Zm-182.65-143.11c-37.21-.61-69.85,8.09-95.8,34.68-19.99,20.49-31.56,45.43-34.74,73.66-3.65,32.33-5.24,64.65,9.05,95.53,23.31,50.38,96.05,63,134.63,23.01,24.47-25.36,28.76-55.76,20.71-88.58-9.76-39.85-35.51-58.71-76.02-53.88-12.8,1.52-24.87,9.14-37.07,13.89,7.43-43.06,40.44-53.81,79.23-56.6v-41.72Z"/><path class="cls-1" d="M901.55,191.11c-21.01-9.6-39.56-19.25-58.96-26.69-32.7-12.54-66.94-17.2-101.98-16.55-5.38,.1-11.43-1.33-16.11-3.95-62.13-34.85-128.02-59.1-198.51-69.8-81.56-12.37-161.71-5.35-240.3,19.73-84.55,26.99-158.9,71.89-226.51,128.71-15.14,12.72-33.08,13.58-46.15,2.81-17.38-14.32-17.73-38.91,1.02-53.65,28.97-22.78,58.12-45.58,88.87-65.83C174.27,58.93,252.04,26.66,336.17,10.72,449.67-10.79,560.28,.32,667.9,41.83c82.82,31.94,156.2,79.33,223.02,137.31,3.51,3.05,6.25,6.99,10.63,11.97Z"/><path class="cls-1" d="M579.75,202.54c-12.77,12.07-27.01,22.79-37.64,36.34-11,14.03-21.24,16.79-39.09,13.39-80.02-15.23-155.14,2.08-224.35,42.93-32.41,19.13-62.04,43.09-92.31,65.7-21.88,16.34-48.88,10.36-56.67-13.98-4.4-13.74-1.15-26.17,9.63-35.6,68.69-60.08,144.37-107.18,235.38-125.39,69.06-13.82,136.63-7.87,202.86,15.5,.81,.28,1.54,.78,2.17,1.12Z"/><path class="cls-1" d="M474.84,359.18c-2.81,21.72-5.61,43.39-8.46,65.46-13.55,1.11-27.79,1.51-41.79,3.55-43.36,6.32-80.62,26.28-114.67,52.93-8.8,6.89-18.16,11.98-29.72,10.17-14.55-2.27-24.48-10.46-28.43-24.77-3.96-14.34,.4-26.67,11.81-35.83,39.4-31.63,82.79-55.43,132.52-66.71,25.37-5.76,61.57-8.2,78.75-4.81Z"/><path class="cls-1" d="M389.21,605.43c2.12-35.53,31.48-62.94,65.1-60.79,35.62,2.28,63.34,31.74,61.13,64.96-2.38,35.81-31.33,63.19-64.86,61.36-36.09-1.98-63.43-31.17-61.37-65.54Z"/><path class="cls-1" d="M713.56,461.03c.83-19.59,12.74-32.31,32.26-33.52,17.65-1.09,33.36,12.73,35.35,32.83,.92,9.25,.1,19.13-2.22,28.14-3.98,15.41-15.08,23.19-29.74,23.19-14.74,0-26.37-8.5-30.64-23.67-2.47-8.77-3.39-17.96-5.01-26.97Z"/></g></g></svg>